PathFileType	4	(X/Y/Z)	C:/Users/beibeiliu/ov580/test_trc/User2\sequence.8_training_dense_right.trc
DataRate	CameraRate	NumFrames	NumMarkers	Units	OrigDataRate	OrigDataStartFrame	OrigNumFrames
120	120	12	19	mm	120	52	77
Frame#	Time	ThumbCMC			ThumbMCP			ThumbIP			ThumbTip			IndexMCP			IndexPIP			IndexTip			MiddleMCP			MiddlePIP			MiddleTip			RingMCP			RingPIP			RingTip			PinkyMCP			PinkyPIP			PinkyTip			BackHand1			BackHand2			BackHand3	
		X0	Y0	Z0	X1	Y1	Z1	X2	Y2	Z2	X3	Y3	Z3	X4	Y4	Z4	X5	Y5	Z5	X6	Y6	Z6	X7	Y7	Z7	X8	Y8	Z8	X9	Y9	Z9	X10	Y10	Z10	X11	Y11	Z11	X12	Y12	Z12	X13	Y13	Z13	X14	Y14	Z14	X15	Y15	Z15	X16	Y16	Z16	X17	Y17	Z17	X18	Y18	Z18	
51	0.425	156.056	51.348	-27.7052	150.99	65.9651	-55.6446	141.956	77.6287	-82.701	134.784	88.994	-104.699	167.361	30.4525	-109.659	163.278	31.3874	-136.595	160.701	34.0802	-166.305	175.631	3.63057	-113.885	173.308	-0.532287	-144.415	173.036	-6.03631	-178.464	176.752	-24.8798	-104.361	176.206	-27.731	-133.934	177.333	-37.9696	-160.484	169.318	-44.2397	-87.1653	167.799	-58.5467	-104.373	174.163	-70.1107	-129.224	184.732	-11.2609	-54.2316	192.715	-10.3704	-20.6167	184.645	25.7045	-40.292	
52	0.433333	133.213	46.6039	-20.3553	121.093	62.3612	-44.0109	112.438	72.4325	-73.5716	100.904	84.6614	-90.4714	154.289	42.8997	-104.644	151.58	50.294	-130.375	154.277	49.8488	-160.128	174.647	21.4749	-109.998	173.335	23.1961	-138.207	180.043	18.5275	-170.477	183.372	-1.52743	-103.016	187.081	-4.46264	-127.577	193.56	-7.32268	-157.073	183.879	-26.0937	-83.7499	190.734	-34.7963	-107.138	200.494	-40.3563	-128.592	185.164	1.62313	-46.7549	185.941	6.32314	-11.695	168.556	32.6795	-31.4261	
53	0.441667	113.635	36.5835	-12.3886	96.6691	52.1685	-33.4341	83.97	62.9962	-59.9138	71.8556	74.0621	-82.9275	136.998	50.8043	-91.584	136.231	57.2479	-116.861	137.373	63.4086	-144.676	160.61	40.0693	-99.1656	166.094	44.4098	-132.36	172.439	46.9698	-159.493	181.287	18.0363	-96.6279	186.069	20.4247	-119.068	189.838	28.425	-149.664	188.441	-7.72992	-77.6874	199.527	-10.8756	-100.147	208.742	-4.72551	-122.098	177.548	15.2632	-37.7827	177.321	15.9289	-6.53139	150.359	40.614	-23.0908	
54	0.45	103.102	21.6605	-9.47342	83.9877	33.213	-28.4739	66.8838	47.8426	-56.7985	52.7028	52.8274	-73.3464	121.679	52.8652	-89.2969	116.759	63.0567	-114.119	117.042	70.5026	-136.766	147.579	49.3479	-94.4701	150.104	58.9285	-125.169	152.321	67.3629	-150.002	169.053	34.4153	-90.8478	177.635	40.002	-112.292	179.67	50.9652	-138.223	186.533	11.0647	-76.8052	197.195	15.0825	-99.0827	210.289	24.663	-120.21	165.631	23.4401	-36.6766	168.859	19.2514	-2.14316	135.582	39.0866	-20.2374	
55	0.458333	97.7714	12.8162	-9.05037	77.4064	23.3472	-30.0535	56.9958	31.7163	-53.0996	43.36	37.281	-75.5645	108.207	46.4647	-85.7839	105.542	54.5897	-111.124	102.871	63.1074	-134.319	137.247	47.71	-91.316	137.025	57.2773	-119.975	140.677	69.2863	-150.398	163.653	35.75	-84.8192	163.064	47.7562	-111.775	171.446	58.0287	-136.062	179.86	16.4926	-71.5067	193.301	24.4172	-94.6439	198.194	37.9139	-113.081	160.859	26.3989	-33.9581	161.438	20.7605	0.672829	123.951	34.5675	-17.3266	
56	0.466667	92.7386	9.97639	-6.6264	70.038	13.945	-27.9962	52.2454	19.1965	-54.4686	35.8468	19.8253	-73.2628	102.656	35.2593	-87.3366	94.5528	38.7835	-109.515	90.8503	45.7972	-138.373	129.328	38.9832	-91.3391	130	43.7418	-119.816	128.928	52.411	-150.783	153.471	30.8764	-84.4687	160.54	38.3825	-110.686	163.476	45.926	-136.568	173.716	16.132	-69.9441	187.735	21.8417	-90.8939	196.821	32.386	-111.688	155.999	24.8778	-30.0158	155.59	26.119	1.84967	120.924	31.8835	-16.9731	
57	0.475	89.3572	6.75345	-4.46725	66.6856	8.02122	-29.1064	46.3742	7.46073	-57.2207	35.5523	2.41237	-71.3729	98.026	20.3529	-86.7335	93.6379	20.4485	-113.629	90.107	20.3773	-142.313	129.269	23.5462	-94.1824	126.395	25.4462	-125.626	128.789	27.245	-153.935	155.385	17.6965	-85.1175	157.963	20.9032	-110.77	157.572	26.061	-140.107	177.214	7.55788	-69.0042	182.607	9.76551	-90.5409	194.576	20.6204	-113.055	150.145	22.0871	-30.3763	153.308	26.383	-1.65728	118.806	28.548	-18.4425	
58	0.483333	90.3957	3.38888	-8.16748	67.6028	-0.445693	-27.1961	47.5603	-3.41986	-54.0693	37.3069	-10.6629	-75.0804	103.129	6.71776	-88.8239	94.0168	3.74833	-116.449	92.2065	0.348151	-142.233	131.719	10.9604	-93.5565	133.813	8.71139	-127.725	130.963	8.62533	-158.243	154.366	7.5554	-86.0672	164.239	6.1895	-112.463	164.74	8.44487	-138.165	179.506	-1.41604	-65.3518	189.277	-0.604031	-87.8111	199.835	7.87617	-107.48	154.374	15.3249	-29.4882	153.242	25.1059	2.46141	118.553	24.4484	-18.7714	
59	0.491667	94.66	0.311934	-9.71734	70.6855	-3.52235	-31.4238	60.2702	-10.7677	-62.4937	46.4619	-18.1147	-79.3513	108.537	2.41845	-90.3392	107.881	-2.57283	-116.672	109.418	-6.16472	-145.054	140.841	7.81	-97.0201	143.966	5.39455	-126.395	147.145	4.47865	-153.76	166.992	6.93335	-84.2911	175.113	6.17072	-108.73	180.818	6.34555	-134.883	186.634	-0.759838	-59.1701	199.401	-0.179595	-80.6785	207.519	5.55089	-101.995	157.263	15.4821	-32.9738	154.07	26.9271	2.50195	122.34	24.1836	-19.6822	
60	0.5	95.4111	0.935412	-11.0876	82.5688	-4.60855	-36.737	66.5069	-9.82409	-66.7726	54.5619	-17.1877	-88.0847	122.044	7.7118	-95.0838	118.905	1.83089	-122.404	120.268	0.0267688	-149.001	148.769	14.5523	-92.7367	152.671	11.5418	-123.015	164.746	13.9878	-156.34	177.627	14.1115	-84.0012	185.551	13.4441	-105.252	193.921	16.4726	-132.967	195.25	5.95362	-54.7697	205.72	9.84312	-80.7024	220.338	17.5888	-93.8598	164.02	21.644	-28.9793	157.062	30.1253	3.18011	126.465	26.6066	-23.6304	
61	0.508333	101.289	4.47778	-17.5144	83.0919	-0.304529	-40.1758	72.4019	-2.5711	-73.9047	68.5491	-8.03636	-94.7257	128.268	20.1834	-90.8753	132.856	18.5738	-121.275	131.642	17.8288	-145.628	160.441	27.6804	-89.036	162.948	30.282	-122.175	171.483	34.6433	-150.422	180.272	27.2623	-78.8394	190.064	31.0772	-99.2786	201.29	37.37	-125.567	198.311	18.9329	-55.1455	212.87	23.3878	-71.1048	225.78	38.3596	-92.5215	168.4	26.401	-26.3515	159.611	31.7843	6.0983	126.885	30.5371	-20.9427	
62	0.516667	100.997	13.1521	-16.0852	86.2727	12.184	-41.5923	75.3709	16.1469	-77.0114	67.3962	13.6672	-97.0012	131.914	39.6367	-87.7561	133.646	41.6283	-114.575	131.981	46.5898	-144.032	160.542	48.8717	-90.2737	162.798	53.3361	-117.097	174.007	62.4322	-147.383	183.412	41.8926	-73.5559	189.281	52.2746	-100.284	200.636	62.4595	-125.979	200.957	27.635	-51.6794	212.845	38.6172	-73.8746	223.716	52.3376	-92.618	168.335	33.1435	-21.4982	163.593	33.4709	11.7151	131.946	36.968	-17.8587	
